<svg width="32" height="32" viewBox="0 0 32 32" fill="none" xmlns="http://www.w3.org/2000/svg">
<g clip-path="url(#clip0)">
<rect width="32" height="32" rx="8" fill="#FF4747"/>
<g filter="url(#filter0_d)">
<path d="M22.7767 15.804C22.7767 16.74 22.7127 17.64 22.5847 18.504C22.4647 19.36 22.2167 20.16 21.8407 20.904C21.4727 21.648 20.9167 22.316 20.1727 22.908C19.8207 23.196 19.3927 23.432 18.8887 23.616C18.3847 23.792 17.8687 23.92 17.3407 24C16.8207 24.08 16.3447 24.12 15.9127 24.12C14.9127 24.12 13.9927 24.108 13.1527 24.084C12.3207 24.068 11.3807 24.048 10.3327 24.024L10.1767 23.868V7.74L10.3327 7.584C11.3727 7.544 12.3127 7.52 13.1527 7.512C13.9927 7.504 14.9127 7.5 15.9127 7.5C16.3447 7.5 16.8247 7.54 17.3527 7.62C17.8807 7.7 18.3927 7.828 18.8887 8.004C19.3927 8.18 19.8207 8.412 20.1727 8.7C20.9087 9.292 21.4607 9.964 21.8287 10.716C22.2047 11.46 22.4567 12.264 22.5847 13.128C22.7127 13.984 22.7767 14.876 22.7767 15.804ZM19.6207 15.804C19.6207 15.124 19.5767 14.44 19.4887 13.752C19.4007 13.064 19.2287 12.432 18.9727 11.856C18.7247 11.272 18.3527 10.804 17.8567 10.452C17.3607 10.092 16.7087 9.912 15.9007 9.912C15.4367 9.912 14.9967 9.912 14.5807 9.912C14.1727 9.904 13.7207 9.896 13.2247 9.888V21.708C13.7207 21.7 14.1727 21.7 14.5807 21.708C14.9967 21.708 15.4367 21.708 15.9007 21.708C16.7087 21.708 17.3607 21.532 17.8567 21.18C18.3527 20.82 18.7247 20.348 18.9727 19.764C19.2287 19.18 19.4007 18.544 19.4887 17.856C19.5767 17.16 19.6207 16.476 19.6207 15.804Z" fill="white"/>
</g>
</g>
<defs>
<filter id="filter0_d" x="6.1767" y="7.5" width="20.6" height="24.62" filterUnits="userSpaceOnUse" color-interpolation-filters="sRGB">
<feFlood flood-opacity="0" result="BackgroundImageFix"/>
<feColorMatrix in="SourceAlpha" type="matrix" values="0 0 0 0 0 0 0 0 0 0 0 0 0 0 0 0 0 0 127 0"/>
<feOffset dy="4"/>
<feGaussianBlur stdDeviation="2"/>
<feColorMatrix type="matrix" values="0 0 0 0 0 0 0 0 0 0 0 0 0 0 0 0 0 0 0.25 0"/>
<feBlend mode="normal" in2="BackgroundImageFix" result="effect1_dropShadow"/>
<feBlend mode="normal" in="SourceGraphic" in2="effect1_dropShadow" result="shape"/>
</filter>
<clipPath id="clip0">
<rect width="32" height="32" rx="8" fill="white"/>
</clipPath>
</defs>
</svg>
